<svg xmlns="http://www.w3.org/2000/svg" width="60" height="61" viewBox="0 0 60 61" fill="none">
<g id="arrow-circle-right 1">
<path id="Vector" d="M30 6.125C25.1791 6.125 20.4664 7.55457 16.458 10.2329C12.4495 12.9113 9.32533 16.7181 7.48045 21.1721C5.63556 25.626 5.15286 30.527 6.09337 35.2553C7.03388 39.9836 9.35538 44.3268 12.7643 47.7357C16.1732 51.1446 20.5164 53.4661 25.2447 54.4066C29.973 55.3472 34.874 54.8644 39.3279 53.0196C43.7819 51.1747 47.5887 48.0505 50.2671 44.042C52.9454 40.0336 54.375 35.3209 54.375 30.5C54.3682 24.0374 51.7979 17.8415 47.2282 13.2718C42.6585 8.70209 36.4626 6.13182 30 6.125ZM30 51.125C25.9208 51.125 21.9331 49.9154 18.5414 47.6491C15.1496 45.3828 12.5061 42.1616 10.945 38.3928C9.38394 34.6241 8.97549 30.4771 9.77131 26.4763C10.5671 22.4754 12.5315 18.8004 15.4159 15.9159C18.3004 13.0315 21.9754 11.0671 25.9763 10.2713C29.9771 9.47548 34.1241 9.88393 37.8929 11.445C41.6616 13.006 44.8828 15.6496 47.1491 19.0414C49.4154 22.4331 50.625 26.4208 50.625 30.5C50.6188 35.9682 48.4438 41.2106 44.5772 45.0772C40.7106 48.9438 35.4682 51.1188 30 51.125ZM40.7016 29.1734C40.8759 29.3476 41.0142 29.5544 41.1086 29.782C41.2029 30.0096 41.2515 30.2536 41.2515 30.5C41.2515 30.7464 41.2029 30.9904 41.1086 31.218C41.0142 31.4456 40.8759 31.6524 40.7016 31.8266L33.2016 39.3266C32.8497 39.6784 32.3726 39.876 31.875 39.876C31.3775 39.876 30.9003 39.6784 30.5484 39.3266C30.1966 38.9747 29.999 38.4976 29.999 38C29.999 37.5024 30.1966 37.0253 30.5484 36.6734L34.8492 32.375H20.625C20.1277 32.375 19.6508 32.1775 19.2992 31.8258C18.9476 31.4742 18.75 30.9973 18.75 30.5C18.75 30.0027 18.9476 29.5258 19.2992 29.1742C19.6508 28.8225 20.1277 28.625 20.625 28.625H34.8492L30.5484 24.3266C30.1966 23.9747 29.999 23.4976 29.999 23C29.999 22.5024 30.1966 22.0253 30.5484 21.6734C30.9003 21.3216 31.3775 21.124 31.875 21.124C32.3726 21.124 32.8497 21.3216 33.2016 21.6734L40.7016 29.1734Z" fill="#ffffff"/>
</g>
</svg>