<svg xmlns="http://www.w3.org/2000/svg" width="60" height="61" viewBox="0 0 60 61" fill="none">
<g id="arrow-circle-right 1">
<path id="Vector" d="M30 54.875C34.8209 54.875 39.5336 53.4454 43.542 50.7671C47.5505 48.0887 50.6747 44.2819 52.5196 39.8279C54.3644 35.374 54.8471 30.473 53.9066 25.7447C52.9661 21.0164 50.6446 16.6732 47.2357 13.2643C43.8268 9.85537 39.4836 7.53388 34.7553 6.59336C30.027 5.65285 25.126 6.13556 20.6721 7.98044C16.2181 9.82533 12.4113 12.9495 9.73292 16.958C7.05456 20.9664 5.62499 25.6791 5.62499 30.5C5.63182 36.9626 8.20208 43.1585 12.7718 47.7282C17.3415 52.2979 23.5374 54.8682 30 54.875ZM30 9.875C34.0792 9.875 38.0669 11.0846 41.4586 13.3509C44.8504 15.6172 47.4939 18.8384 49.055 22.6072C50.6161 26.3759 51.0245 30.5229 50.2287 34.5237C49.4329 38.5246 47.4685 42.1996 44.5841 45.0841C41.6996 47.9685 38.0246 49.9329 34.0237 50.7287C30.0229 51.5245 25.8759 51.1161 22.1071 49.555C18.3384 47.994 15.1172 45.3504 12.8509 41.9586C10.5846 38.5669 9.37499 34.5792 9.37499 30.5C9.3812 25.0318 11.5562 19.7894 15.4228 15.9228C19.2894 12.0562 24.5318 9.88121 30 9.875ZM19.2984 31.8266C19.1241 31.6524 18.9858 31.4456 18.8914 31.218C18.7971 30.9904 18.7485 30.7464 18.7485 30.5C18.7485 30.2536 18.7971 30.0096 18.8914 29.782C18.9858 29.5544 19.1241 29.3476 19.2984 29.1734L26.7984 21.6734C27.1503 21.3216 27.6274 21.124 28.125 21.124C28.6225 21.124 29.0997 21.3216 29.4516 21.6734C29.8034 22.0253 30.001 22.5024 30.001 23C30.001 23.4976 29.8034 23.9747 29.4516 24.3266L25.1508 28.625H39.375C39.8723 28.625 40.3492 28.8225 40.7008 29.1742C41.0524 29.5258 41.25 30.0027 41.25 30.5C41.25 30.9973 41.0524 31.4742 40.7008 31.8258C40.3492 32.1775 39.8723 32.375 39.375 32.375H25.1508L29.4516 36.6734C29.8034 37.0253 30.001 37.5024 30.001 38C30.001 38.4976 29.8034 38.9747 29.4516 39.3266C29.0997 39.6784 28.6225 39.876 28.125 39.876C27.6274 39.876 27.1503 39.6784 26.7984 39.3266L19.2984 31.8266Z" fill="#ffffff"/>
</g>
</svg>